<svg width="10" height="18" viewBox="0 0 10 18" fill="none" xmlns="http://www.w3.org/2000/svg">
<path d="M6.42255 10.0415V17.3088H3.21063V10.0415V10.0171H3.18622H0.561218V7.04964H3.18622H3.21063V7.02523V4.7264C3.21063 3.42366 3.59857 2.41547 4.28039 1.73299C4.96225 1.0505 5.94083 0.690918 7.12762 0.690918C7.69713 0.690918 8.28001 0.741756 8.72073 0.792645C8.94104 0.818083 9.12571 0.84352 9.25528 0.862594C9.32006 0.87213 9.37106 0.880075 9.40585 0.885632L9.43882 0.890984V3.4139H8.14748C7.49407 3.4139 7.06146 3.61685 6.79267 3.92767C6.52445 4.23783 6.42255 4.65172 6.42255 5.06787V7.02523V7.04964H6.44696H9.31272L8.85732 10.0171H6.44696H6.42255V10.0415Z" fill="#697687" stroke="#697687" stroke-width="0.0488281"/>
</svg>
