<svg width="16" height="16" viewBox="0 0 16 16" fill="none" xmlns="http://www.w3.org/2000/svg">
<path d="M15.4313 11.1896C15.3728 12.3582 15.1058 13.3934 14.253 14.2463C13.4001 15.1024 12.3649 15.3693 11.1963 15.4246L15.4313 11.1896ZM15.4313 11.1896C15.4997 9.98519 15.4997 6.37842 15.4313 5.17399V11.1896ZM15.407 5.17515L15.407 5.17537C15.4753 6.37888 15.4753 9.98473 15.407 11.1882L15.407 11.1884C15.3485 12.354 15.0826 13.3821 14.2357 14.229L14.2357 14.229C13.3888 15.0791 12.3607 15.3451 11.1952 15.4003L11.1949 15.4003C9.99143 15.4686 6.38233 15.4686 5.17882 15.4003L5.17866 15.4003C4.01312 15.3418 2.98816 15.0759 2.13803 14.229C1.28795 13.3821 1.02199 12.354 0.966801 11.1885L0.966788 11.1882C0.898481 9.98473 0.898481 6.37563 0.966789 5.17212L0.966797 5.17196C1.02524 4.00633 1.28798 2.97821 2.13803 2.13139C2.98815 1.2845 4.01635 1.01854 5.1786 0.963352L5.17882 0.96334C6.38233 0.895033 9.99143 0.895033 11.1949 0.96334L11.1951 0.963348C12.3607 1.02179 13.3888 1.28776 14.2357 2.13461L14.2357 2.13465C15.0858 2.98149 15.3518 4.00963 15.407 5.17515ZM12.4976 13.8913L12.4977 13.8913C13.1452 13.6317 13.6416 13.1352 13.898 12.491C14.0903 12.0079 14.1634 11.194 14.1891 10.3717C14.2074 9.78252 14.2014 9.18629 14.1965 8.70072C14.1945 8.50782 14.1927 8.33239 14.1927 8.1818C14.1927 8.03119 14.1945 7.85579 14.1965 7.66295C14.2014 7.17766 14.2074 6.58197 14.1891 5.99314C14.1634 5.17125 14.0903 4.35735 13.8981 3.87267L13.898 3.87259C13.6384 3.22515 13.1419 2.72867 12.4977 2.47227L12.4976 2.47224C12.0146 2.28166 11.2007 2.20849 10.3784 2.18247C9.7848 2.16368 9.18405 2.16944 8.69651 2.17412C8.50792 2.17593 8.33626 2.17757 8.18851 2.17757C8.03789 2.17757 7.86249 2.17579 7.66966 2.17384C7.18437 2.16892 6.58868 2.16289 5.99984 2.18125C5.17796 2.20687 4.36406 2.28003 3.87938 2.47226L3.87929 2.47229C3.23185 2.73193 2.73537 3.22837 2.47897 3.87265L2.47895 3.87271C2.28837 4.35574 2.2152 5.16962 2.18917 5.9919C2.17038 6.58551 2.17614 7.18626 2.18082 7.6738C2.18263 7.8624 2.18428 8.03405 2.18428 8.1818C2.18428 8.33242 2.1825 8.50782 2.18055 8.70065C2.17563 9.18594 2.16959 9.78163 2.18795 10.3705C2.21357 11.1924 2.28674 12.0063 2.47896 12.4909L2.479 12.491C2.73863 13.1385 3.23507 13.6349 3.87935 13.8913L3.87942 13.8914C4.36244 14.0819 5.17632 14.1551 5.99861 14.1811C6.59222 14.1999 7.19296 14.1942 7.6805 14.1895C7.8691 14.1877 8.04076 14.186 8.18851 14.186C8.33912 14.186 8.51452 14.1878 8.70736 14.1898C9.19265 14.1947 9.78834 14.2007 10.3772 14.1824C11.1991 14.1567 12.013 14.0836 12.4976 13.8913ZM4.47269 8.1818C4.47269 6.12497 6.13168 4.46598 8.18851 4.46598C10.2453 4.46598 11.9043 6.12497 11.9043 8.1818C11.9043 10.2386 10.2453 11.8976 8.18851 11.8976C6.13168 11.8976 4.47269 10.2386 4.47269 8.1818ZM5.73245 8.1818C5.73245 9.53646 6.83715 10.6379 8.18851 10.6379C9.53986 10.6379 10.6446 9.53646 10.6446 8.1818C10.6446 6.82717 9.54314 5.72575 8.18851 5.72575C6.83388 5.72575 5.73245 6.82717 5.73245 8.1818ZM12.9297 4.28857C12.9297 4.76006 12.5501 5.13656 12.0817 5.13656C11.6103 5.13656 11.2338 4.75692 11.2338 4.28857C11.2338 3.82029 11.6135 3.44059 12.0817 3.44059C12.55 3.44059 12.9297 3.82029 12.9297 4.28857Z" fill="#697687" stroke="#697687" stroke-width="0.0488281"/>
</svg>
