<svg width="19" height="19" viewBox="0 0 19 19" fill="none" xmlns="http://www.w3.org/2000/svg">
<path d="M6.46337 18.334C6.38738 17.609 6.31892 16.5152 6.50138 15.7342C6.58456 15.3757 6.85255 14.2372 7.09973 13.1884L7.42921 11.7911L7.53407 11.3466L7.5631 11.2236L7.5707 11.1914L7.57132 11.1888L7.56307 11.171C7.55545 11.1541 7.54463 11.1292 7.53167 11.0969C7.50575 11.0322 7.47128 10.9376 7.43684 10.8176C7.36797 10.5774 7.29913 10.2351 7.29913 9.82578C7.29913 8.54388 8.0434 7.57623 8.98316 7.57623C9.38169 7.57623 9.679 7.726 9.87621 7.96681C10.0729 8.20697 10.1682 8.53543 10.1682 8.89063C10.1682 9.28831 10.0423 9.7822 9.88534 10.3105C9.84142 10.4583 9.79505 10.6088 9.7482 10.7608C9.62714 11.1538 9.50293 11.5569 9.4098 11.9494L9.40979 11.9494C9.1958 12.8453 9.8583 13.5752 10.7426 13.5752C11.5481 13.5752 12.262 13.1508 12.7754 12.4163C13.2889 11.6815 13.6012 10.6369 13.6012 9.40071C13.6012 8.30898 13.2089 7.38309 12.5381 6.73012C11.8672 6.0771 10.9162 5.69562 9.79633 5.69562C7.2013 5.69562 5.68096 7.63895 5.68096 9.64836C5.68096 10.4306 5.98245 11.2677 6.35183 11.7249C6.35187 11.725 6.35191 11.725 6.35195 11.7251L6.33296 11.7404C6.40688 11.8291 6.41797 11.9105 6.39579 12.0029L6.46337 18.334ZM6.46337 18.334C3.08422 16.9936 0.69104 13.6933 0.69104 9.83317C0.69104 4.78281 4.78293 0.690918 9.83329 0.690918C14.8837 0.690918 18.9755 4.78281 18.9755 9.83317C18.9755 14.8835 14.8837 18.9754 9.83329 18.9754C8.90057 18.9754 8.00389 18.835 7.15746 18.5755L6.46337 18.334Z" fill="#697687" stroke="#697687" stroke-width="0.0488281"/>
</svg>
