<svg width="16" height="15" viewBox="0 0 16 15" fill="none" xmlns="http://www.w3.org/2000/svg">
<path d="M15.9105 5.73058C15.7625 5.27782 15.3694 4.94786 14.8961 4.8795L10.8999 4.30153L9.11257 0.697992C8.90097 0.271163 8.46411 0.000976562 7.98579 0.000976562C7.50755 0.000976562 7.07077 0.271246 6.85909 0.698076L5.07211 4.30153L1.07563 4.8795C0.602331 4.94786 0.209033 5.27782 0.061263 5.73058C-0.0865067 6.18333 0.0368022 6.68027 0.379336 7.01248L3.27115 9.81738L2.58834 13.7784C2.5075 14.2476 2.70126 14.7218 3.08819 15.0015C3.30709 15.1598 3.56635 15.2403 3.82688 15.2403C4.02692 15.2403 4.22771 15.1929 4.4115 15.0966L7.98579 13.2264L11.5604 15.0966C11.9837 15.3179 12.4966 15.2812 12.8837 15.0014C13.2706 14.7217 13.4644 14.2475 13.3836 13.7783L12.7009 9.81722L15.5924 7.0124C15.9349 6.68019 16.0582 6.18325 15.9105 5.73058Z" fill="#FFD751"/>
</svg>
